<svg xmlns="http://www.w3.org/2000/svg" xmlns:xlink="http://www.w3.org/1999/xlink" width="500" zoomAndPan="magnify" viewBox="0 0 375 374.999991" height="500" preserveAspectRatio="xMidYMid meet" version="1.0"><defs><g/><clipPath id="fde9d165c6"><path d="M 12.570312 12.570312 L 362.429688 12.570312 L 362.429688 362.429688 L 12.570312 362.429688 Z M 12.570312 12.570312 " clip-rule="nonzero"/></clipPath><clipPath id="33d0b726e9"><path d="M 187.5 362.429688 C 140.796875 362.429688 96.820312 344.25 63.820312 311.179688 C 30.75 278.179688 12.570312 234.203125 12.570312 187.5 C 12.570312 140.796875 30.75 96.820312 63.820312 63.820312 C 96.820312 30.75 140.796875 12.570312 187.5 12.570312 C 234.203125 12.570312 278.179688 30.75 311.179688 63.820312 C 344.25 96.890625 362.429688 140.796875 362.429688 187.5 C 362.429688 234.203125 344.25 278.179688 311.179688 311.179688 C 278.179688 344.25 234.203125 362.429688 187.5 362.429688 Z M 187.5 23.058594 C 143.59375 23.058594 102.273438 40.1875 71.230469 71.230469 C 40.1875 102.273438 23.058594 143.59375 23.058594 187.5 C 23.058594 231.40625 40.1875 272.726562 71.230469 303.769531 C 102.273438 334.8125 143.59375 351.941406 187.5 351.941406 C 231.40625 351.941406 272.726562 334.8125 303.769531 303.769531 C 334.8125 272.726562 351.941406 231.40625 351.941406 187.5 C 351.941406 143.59375 334.8125 102.273438 303.769531 71.230469 C 272.726562 40.1875 231.40625 23.058594 187.5 23.058594 Z M 187.5 23.058594 " clip-rule="nonzero"/></clipPath></defs><g clip-path="url(#fde9d165c6)"><g clip-path="url(#33d0b726e9)"><path fill="#ffffff" d="M 12.570312 12.570312 L 362.429688 12.570312 L 362.429688 362.429688 L 12.570312 362.429688 Z M 12.570312 12.570312 " fill-opacity="1" fill-rule="nonzero"/></g></g><g fill="#ffffff" fill-opacity="1"><g transform="translate(56.354627, 237.47641)"><g><path d="M 18.796875 -55.65625 L 0 -55.65625 L 0 -97.1875 C 0 -97.925781 0.453125 -98.296875 1.359375 -98.296875 L 17.453125 -98.296875 C 18.347656 -98.296875 18.796875 -97.925781 18.796875 -97.1875 Z M 73.484375 -98.296875 C 74.378906 -98.296875 74.828125 -97.925781 74.828125 -97.1875 L 74.828125 -1.109375 C 74.828125 -0.367188 74.378906 0 73.484375 0 L 57.375 0 C 56.476562 0 56.03125 -0.367188 56.03125 -1.109375 L 56.03125 -18.4375 L 18.796875 -18.4375 L 18.796875 -1.109375 C 18.796875 -0.367188 18.347656 0 17.453125 0 L 1.359375 0 C 0.453125 0 0 -0.367188 0 -1.109375 L 0 -36.859375 L 18.796875 -36.859375 L 18.796875 -36.734375 L 56.03125 -36.734375 L 56.03125 -97.1875 C 56.03125 -97.925781 56.476562 -98.296875 57.375 -98.296875 Z M 73.484375 -98.296875 "/></g></g></g><g fill="#ffffff" fill-opacity="1"><g transform="translate(134.991431, 237.47641)"><g><path d="M 17.453125 -98.296875 C 22.203125 -98.296875 27.238281 -97.96875 32.5625 -97.3125 C 37.882812 -96.65625 43.046875 -95.382812 48.046875 -93.5 C 53.046875 -91.625 57.570312 -88.882812 61.625 -85.28125 C 65.675781 -81.675781 68.910156 -76.941406 71.328125 -71.078125 C 73.742188 -65.222656 74.953125 -57.914062 74.953125 -49.15625 C 74.953125 -40.71875 73.765625 -33.609375 71.390625 -27.828125 C 69.015625 -22.054688 65.816406 -17.347656 61.796875 -13.703125 C 57.785156 -10.054688 53.257812 -7.226562 48.21875 -5.21875 C 43.1875 -3.21875 38.03125 -1.847656 32.75 -1.109375 C 27.46875 -0.367188 22.367188 0 17.453125 0 L 1.359375 0 C 0.453125 0 0 -0.367188 0 -1.109375 L 0 -39.6875 L 18.796875 -39.6875 L 18.796875 -18.0625 C 21.171875 -17.976562 23.957031 -18.035156 27.15625 -18.234375 C 30.351562 -18.441406 33.628906 -19.054688 36.984375 -20.078125 C 40.335938 -21.109375 43.46875 -22.726562 46.375 -24.9375 C 49.289062 -27.15625 51.628906 -30.226562 53.390625 -34.15625 C 55.148438 -38.09375 56.03125 -43.09375 56.03125 -49.15625 C 56.03125 -56.9375 54.410156 -63.179688 51.171875 -67.890625 C 47.941406 -72.597656 43.519531 -75.953125 37.90625 -77.953125 C 32.289062 -79.960938 25.921875 -80.765625 18.796875 -80.359375 L 18.796875 -58.609375 L 0 -58.609375 L 0 -97.1875 C 0 -97.925781 0.453125 -98.296875 1.359375 -98.296875 Z M 17.453125 -98.296875 "/></g></g></g><g fill="#ffffff" fill-opacity="1"><g transform="translate(213.750271, 237.47641)"><g><path d="M 87.984375 -23.71875 L 87.984375 -54.921875 L 62.90625 -4.671875 C 62.75 -4.179688 62.382812 -3.9375 61.8125 -3.9375 L 46.6875 -3.9375 C 46.03125 -3.9375 45.625 -4.179688 45.46875 -4.671875 L 18.796875 -56.28125 L 18.796875 -1.109375 C 18.796875 -0.367188 18.347656 0 17.453125 0 L 1.234375 0 C 0.410156 0 0 -0.367188 0 -1.109375 L 0 -97.1875 C 0 -97.925781 0.410156 -98.296875 1.234375 -98.296875 L 17.6875 -98.296875 C 18.34375 -98.296875 18.753906 -98.050781 18.921875 -97.5625 L 54.1875 -25.5625 L 87.734375 -97.5625 C 88.054688 -98.050781 88.503906 -98.296875 89.078125 -98.296875 L 105.296875 -98.296875 C 106.203125 -98.296875 106.65625 -97.925781 106.65625 -97.1875 L 106.65625 -23.71875 Z M 87.984375 -23.71875 "/></g></g></g><path stroke-linecap="round" transform="matrix(-0.75, 0.000000001309, -0.000000001309, -0.75, 100.361856, 154.204737)" fill="none" stroke-linejoin="miter" d="M 9.998101 10.00215 L 47.378312 10.00215 " stroke="#ffffff" stroke-width="20" stroke-opacity="1" stroke-miterlimit="4"/><path stroke-linecap="butt" transform="matrix(0.75, 0, 0, 0.75, 260.325191, 219.719575)" fill="none" stroke-linejoin="miter" d="M -0.00129687 9.9989 L 67.972666 9.9989 " stroke="#ffffff" stroke-width="20" stroke-opacity="1" stroke-miterlimit="4"/></svg>